<svg aria-roledescription="flowchart-v2" role="graphics-document document" viewBox="-8 -8 1667.6953125 431" style="max-width: 1667.7px; background-color: white;" xmlns:xlink="http://www.w3.org/1999/xlink" xmlns="http://www.w3.org/2000/svg" width="100%" id="my-svg"><style>#my-svg{font-size:13px;fill:#e2e8f0;}#my-svg .error-icon{fill:#1e293b;}#my-svg .error-text{fill:#e1d6c4;stroke:#e1d6c4;}#my-svg .edge-thickness-normal{stroke-width:2px;}#my-svg .edge-thickness-thick{stroke-width:3.5px;}#my-svg .edge-pattern-solid{stroke-dasharray:0;}#my-svg .edge-pattern-dashed{stroke-dasharray:3;}#my-svg .edge-pattern-dotted{stroke-dasharray:2;}#my-svg .marker{fill:#38bdf8;stroke:#38bdf8;}#my-svg .marker.cross{stroke:#38bdf8;}#my-svg svg{font-size:13px;}#my-svg .label{color:#e2e8f0;}#my-svg .cluster-label text{fill:#1e1b4b;}#my-svg .cluster-label span,#my-svg p{color:#1e1b4b;}#my-svg .label text,#my-svg span,#my-svg p{fill:#e2e8f0;color:#e2e8f0;}#my-svg .node rect,#my-svg .node circle,#my-svg .node ellipse,#my-svg .node polygon,#my-svg .node path{fill:#0f172a;stroke:#0063e5;stroke-width:1px;}#my-svg .flowchart-label text{text-anchor:middle;}#my-svg .node .katex path{fill:#000;stroke:#000;stroke-width:1px;}#my-svg .node .label{text-align:center;}#my-svg .node.clickable{cursor:pointer;}#my-svg .arrowheadPath{fill:#0b0b0b;}#my-svg .edgePath .path{stroke:#38bdf8;stroke-width:2.0px;}#my-svg .flowchart-link{stroke:#38bdf8;fill:none;}#my-svg .edgeLabel{background-color:#e8f0ff;text-align:center;}#my-svg .edgeLabel rect{opacity:0.5;background-color:#e8f0ff;fill:#e8f0ff;}#my-svg .labelBkg{background-color:rgba(232, 240, 255, 0.5);}#my-svg .cluster rect{fill:#f0f7ff;stroke:#bfdbfe;stroke-width:1px;}#my-svg .cluster text{fill:#1e1b4b;}#my-svg .cluster span,#my-svg p{color:#1e1b4b;}#my-svg div.mermaidTooltip{position:absolute;text-align:center;max-width:200px;padding:2px;font-size:12px;background:#1e293b;border:1px solid hsl(217.2413793103, 0%, 7.4509803922%);border-radius:2px;pointer-events:none;z-index:100;}#my-svg .flowchartTitleText{text-anchor:middle;font-size:18px;fill:#e2e8f0;}#my-svg :root{--mermaid-font-family:"trebuchet ms",verdana,arial,sans-serif;}</style><g><marker orient="auto" markerHeight="12" markerWidth="12" markerUnits="userSpaceOnUse" refY="5" refX="6" viewBox="0 0 10 10" class="marker flowchart" id="my-svg_flowchart-pointEnd"><path style="stroke-width: 1; stroke-dasharray: 1, 0;" class="arrowMarkerPath" d="M 0 0 L 10 5 L 0 10 z"/></marker><marker orient="auto" markerHeight="12" markerWidth="12" markerUnits="userSpaceOnUse" refY="5" refX="4.5" viewBox="0 0 10 10" class="marker flowchart" id="my-svg_flowchart-pointStart"><path style="stroke-width: 1; stroke-dasharray: 1, 0;" class="arrowMarkerPath" d="M 0 5 L 10 10 L 10 0 z"/></marker><marker orient="auto" markerHeight="11" markerWidth="11" markerUnits="userSpaceOnUse" refY="5" refX="11" viewBox="0 0 10 10" class="marker flowchart" id="my-svg_flowchart-circleEnd"><circle style="stroke-width: 1; stroke-dasharray: 1, 0;" class="arrowMarkerPath" r="5" cy="5" cx="5"/></marker><marker orient="auto" markerHeight="11" markerWidth="11" markerUnits="userSpaceOnUse" refY="5" refX="-1" viewBox="0 0 10 10" class="marker flowchart" id="my-svg_flowchart-circleStart"><circle style="stroke-width: 1; stroke-dasharray: 1, 0;" class="arrowMarkerPath" r="5" cy="5" cx="5"/></marker><marker orient="auto" markerHeight="11" markerWidth="11" markerUnits="userSpaceOnUse" refY="5.2" refX="12" viewBox="0 0 11 11" class="marker cross flowchart" id="my-svg_flowchart-crossEnd"><path style="stroke-width: 2; stroke-dasharray: 1, 0;" class="arrowMarkerPath" d="M 1,1 l 9,9 M 10,1 l -9,9"/></marker><marker orient="auto" markerHeight="11" markerWidth="11" markerUnits="userSpaceOnUse" refY="5.2" refX="-1" viewBox="0 0 11 11" class="marker cross flowchart" id="my-svg_flowchart-crossStart"><path style="stroke-width: 2; stroke-dasharray: 1, 0;" class="arrowMarkerPath" d="M 1,1 l 9,9 M 10,1 l -9,9"/></marker><g class="root"><g class="clusters"><g id="CF" class="cluster default flowchart-label"><rect height="175" width="469.44140625" y="0" x="0" ry="0" rx="0" style=""/><g transform="translate(181.884765625, 0)" class="cluster-label"><foreignObject height="15" width="105.671875"><div style="display: inline-block; white-space: nowrap;" xmlns="http://www.w3.org/1999/xhtml"><span class="nodeLabel">Cloudflare Worker</span></div></foreignObject></g></g><g id="Convex" class="cluster default flowchart-label"><rect height="175" width="1235.61328125" y="240" x="416.08203125" ry="0" rx="0" style=""/><g transform="translate(986.708984375, 240)" class="cluster-label"><foreignObject height="15" width="94.359375"><div style="display: inline-block; white-space: nowrap;" xmlns="http://www.w3.org/1999/xhtml"><span class="nodeLabel">Convex Backend</span></div></foreignObject></g></g><g id="Browser" class="cluster default flowchart-label"><rect height="175" width="1137.3359375" y="0" x="489.44140625" ry="0" rx="0" style=""/><g transform="translate(998.3125, 0)" class="cluster-label"><foreignObject height="15" width="119.59375"><div style="display: inline-block; white-space: nowrap;" xmlns="http://www.w3.org/1999/xhtml"><span class="nodeLabel">Browser (Static Site)</span></div></foreignObject></g></g></g><g class="edgePaths"><path marker-end="url(#my-svg_flowchart-pointEnd)" style="fill:none;" class="edge-thickness-normal edge-pattern-solid flowchart-link LS-UI LE-State" id="L-UI-State-0" d="M974.91,49.395L921.904,55.746C868.898,62.097,762.887,74.798,709.881,85.683C656.875,96.567,656.875,105.633,656.875,110.167L656.875,114.7"/><path marker-end="url(#my-svg_flowchart-pointEnd)" style="fill:none;" class="edge-thickness-normal edge-pattern-solid flowchart-link LS-UI LE-Events" id="L-UI-Events-0" d="M1053.324,55L1053.324,60.417C1053.324,65.833,1053.324,76.667,1053.324,86.617C1053.324,96.567,1053.324,105.633,1053.324,110.167L1053.324,114.7"/><path marker-end="url(#my-svg_flowchart-pointEnd)" style="fill:none;" class="edge-thickness-normal edge-pattern-solid flowchart-link LS-UI LE-Render" id="L-UI-Render-0" d="M1131.738,48.785L1189.335,55.237C1246.931,61.69,1362.124,74.595,1419.72,85.581C1477.316,96.567,1477.316,105.633,1477.316,110.167L1477.316,114.7"/><path marker-end="url(#my-svg_flowchart-pointEnd)" style="fill:none;" class="edge-thickness-normal edge-pattern-solid flowchart-link LS-Events LE-Auth" id="L-Events-Auth-0" d="M935.816,143.972L868.087,149.143C800.358,154.315,664.9,164.657,597.171,175.245C529.441,185.833,529.441,196.667,529.441,207.5C529.441,218.333,529.441,229.167,529.441,237.867C529.441,246.567,529.441,253.133,529.441,256.417L529.441,259.7"/><path marker-end="url(#my-svg_flowchart-pointEnd)" style="fill:none;" class="edge-thickness-normal edge-pattern-solid flowchart-link LS-Events LE-Votes" id="L-Events-Votes-0" d="M942.594,150L911.835,154.167C881.077,158.333,819.56,166.667,788.801,176.25C758.043,185.833,758.043,196.667,758.043,207.5C758.043,218.333,758.043,229.167,758.043,237.867C758.043,246.567,758.043,253.133,758.043,256.417L758.043,259.7"/><path marker-end="url(#my-svg_flowchart-pointEnd)" style="fill:none;" class="edge-thickness-normal edge-pattern-solid flowchart-link LS-Events LE-Hacks" id="L-Events-Hacks-0" d="M1053.324,150L1053.324,154.167C1053.324,158.333,1053.324,166.667,1053.324,176.25C1053.324,185.833,1053.324,196.667,1053.324,207.5C1053.324,218.333,1053.324,229.167,1053.324,237.867C1053.324,246.567,1053.324,253.133,1053.324,256.417L1053.324,259.7"/><path marker-end="url(#my-svg_flowchart-pointEnd)" style="fill:none;" class="edge-thickness-normal edge-pattern-solid flowchart-link LS-Events LE-Products" id="L-Events-Products-0" d="M1164.635,150L1195.554,154.167C1226.474,158.333,1288.313,166.667,1319.233,176.25C1350.152,185.833,1350.152,196.667,1350.152,207.5C1350.152,218.333,1350.152,229.167,1350.152,237.867C1350.152,246.567,1350.152,253.133,1350.152,256.417L1350.152,259.7"/><path marker-end="url(#my-svg_flowchart-pointEnd)" style="fill:none;" class="edge-thickness-normal edge-pattern-solid flowchart-link LS-Products LE-Storage" id="L-Products-Storage-0" d="M1350.152,295L1350.152,300.417C1350.152,305.833,1350.152,316.667,1361.131,327.131C1372.11,337.595,1394.067,347.691,1405.046,352.738L1416.024,357.786"/><path marker-end="url(#my-svg_flowchart-pointEnd)" style="fill:none;" class="edge-thickness-normal edge-pattern-solid flowchart-link LS-Events LE-Worker" id="L-Events-Worker-0" d="M935.816,126.253L849.051,119.794C762.285,113.335,588.754,100.418,469.756,88.149C350.758,75.881,286.294,64.262,254.061,58.452L221.829,52.643"/><path marker-end="url(#my-svg_flowchart-pointEnd)" style="fill:none;" class="edge-thickness-normal edge-pattern-solid flowchart-link LS-Worker LE-RemoveBG" id="L-Worker-RemoveBG-0" d="M128.315,55L119.877,60.417C111.438,65.833,94.561,76.667,87.512,86.655C80.464,96.643,83.245,105.786,84.635,110.358L86.025,114.929"/><path marker-end="url(#my-svg_flowchart-pointEnd)" style="fill:none;" class="edge-thickness-normal edge-pattern-solid flowchart-link LS-RemoveBG LE-Worker" id="L-RemoveBG-Worker-0" d="M125.181,120L137.116,114.583C149.051,109.167,172.922,98.333,180.322,88.141C187.721,77.948,178.65,68.395,174.114,63.619L169.578,58.843"/><path marker-end="url(#my-svg_flowchart-pointEnd)" style="fill:none;" class="edge-thickness-normal edge-pattern-solid flowchart-link LS-Worker LE-Events" id="L-Worker-Events-0" d="M202.605,55L220.993,60.417C239.381,65.833,276.157,76.667,397.478,88.687C518.798,100.707,724.663,113.915,827.595,120.518L930.527,127.122"/><path marker-end="url(#my-svg_flowchart-pointEnd)" style="fill:none;" class="edge-thickness-normal edge-pattern-solid flowchart-link LS-Events LE-Storage" id="L-Events-Storage-0" d="M1170.832,144.336L1235.156,149.447C1299.48,154.557,1428.129,164.779,1492.453,175.306C1556.777,185.833,1556.777,196.667,1556.777,207.5C1556.777,218.333,1556.777,229.167,1556.777,241.25C1556.777,253.333,1556.777,266.667,1556.777,281.25C1556.777,295.833,1556.777,311.667,1545.799,324.631C1534.82,337.595,1512.863,347.691,1501.884,352.738L1490.905,357.786"/></g><g class="edgeLabels"><g transform="translate(656.875, 87.5)" class="edgeLabel"><g transform="translate(-54.140625, -7.5)" class="label"><foreignObject height="15" width="108.28125"><div style="display: inline-block; white-space: nowrap;" xmlns="http://www.w3.org/1999/xhtml"><span class="edgeLabel">ES module imports</span></div></foreignObject></g></g><g class="edgeLabel"><g transform="translate(0, 0)" class="label"><foreignObject height="0" width="0"><div style="display: inline-block; white-space: nowrap;" xmlns="http://www.w3.org/1999/xhtml"><span class="edgeLabel"></span></div></foreignObject></g></g><g class="edgeLabel"><g transform="translate(0, 0)" class="label"><foreignObject height="0" width="0"><div style="display: inline-block; white-space: nowrap;" xmlns="http://www.w3.org/1999/xhtml"><span class="edgeLabel"></span></div></foreignObject></g></g><g transform="translate(529.44140625, 207.5)" class="edgeLabel"><g transform="translate(-57.640625, -7.5)" class="label"><foreignObject height="15" width="115.28125"><div style="display: inline-block; white-space: nowrap;" xmlns="http://www.w3.org/1999/xhtml"><span class="edgeLabel">mutations / queries</span></div></foreignObject></g></g><g transform="translate(758.04296875, 207.5)" class="edgeLabel"><g transform="translate(-57.640625, -7.5)" class="label"><foreignObject height="15" width="115.28125"><div style="display: inline-block; white-space: nowrap;" xmlns="http://www.w3.org/1999/xhtml"><span class="edgeLabel">mutations / queries</span></div></foreignObject></g></g><g transform="translate(1053.32421875, 207.5)" class="edgeLabel"><g transform="translate(-57.640625, -7.5)" class="label"><foreignObject height="15" width="115.28125"><div style="display: inline-block; white-space: nowrap;" xmlns="http://www.w3.org/1999/xhtml"><span class="edgeLabel">mutations / queries</span></div></foreignObject></g></g><g transform="translate(1350.15234375, 207.5)" class="edgeLabel"><g transform="translate(-57.640625, -7.5)" class="label"><foreignObject height="15" width="115.28125"><div style="display: inline-block; white-space: nowrap;" xmlns="http://www.w3.org/1999/xhtml"><span class="edgeLabel">mutations / queries</span></div></foreignObject></g></g><g transform="translate(1350.15234375, 327.5)" class="edgeLabel"><g transform="translate(-35.7734375, -7.5)" class="label"><foreignObject height="15" width="71.546875"><div style="display: inline-block; white-space: nowrap;" xmlns="http://www.w3.org/1999/xhtml"><span class="edgeLabel">read / write</span></div></foreignObject></g></g><g transform="translate(415.22265625, 87.5)" class="edgeLabel"><g transform="translate(-34.21875, -7.5)" class="label"><foreignObject height="15" width="68.4375"><div style="display: inline-block; white-space: nowrap;" xmlns="http://www.w3.org/1999/xhtml"><span class="edgeLabel">POST image</span></div></foreignObject></g></g><g transform="translate(77.68359375, 87.5)" class="edgeLabel"><g transform="translate(-51.0390625, -7.5)" class="label"><foreignObject height="15" width="102.078125"><div style="display: inline-block; white-space: nowrap;" xmlns="http://www.w3.org/1999/xhtml"><span class="edgeLabel">forward + API key</span></div></foreignObject></g></g><g transform="translate(196.79296875, 87.5)" class="edgeLabel"><g transform="translate(-48.0703125, -7.5)" class="label"><foreignObject height="15" width="96.140625"><div style="display: inline-block; white-space: nowrap;" xmlns="http://www.w3.org/1999/xhtml"><span class="edgeLabel">transparent PNG</span></div></foreignObject></g></g><g transform="translate(312.93359375, 87.5)" class="edgeLabel"><g transform="translate(-48.0703125, -7.5)" class="label"><foreignObject height="15" width="96.140625"><div style="display: inline-block; white-space: nowrap;" xmlns="http://www.w3.org/1999/xhtml"><span class="edgeLabel">transparent PNG</span></div></foreignObject></g></g><g transform="translate(1556.77734375, 280)" class="edgeLabel"><g transform="translate(-69.8359375, -7.5)" class="label"><foreignObject height="15" width="139.671875"><div style="display: inline-block; white-space: nowrap;" xmlns="http://www.w3.org/1999/xhtml"><span class="edgeLabel">upload processed image</span></div></foreignObject></g></g></g><g class="nodes"><g transform="translate(151.68359375, 40)" data-id="Worker" data-node="true" id="flowchart-Worker-9" class="node default default flowchart-label"><rect height="30" width="129.859375" y="-15" x="-64.9296875" ry="0" rx="0" style="" class="basic label-container"/><g transform="translate(-57.4296875, -7.5)" style="" class="label"><rect/><foreignObject height="15" width="114.859375"><div style="display: inline-block; white-space: nowrap;" xmlns="http://www.w3.org/1999/xhtml"><span class="nodeLabel">buyhacks-removebg</span></div></foreignObject></g></g><g transform="translate(92.12890625, 135)" data-id="RemoveBG" data-node="true" id="flowchart-RemoveBG-10" class="node default default flowchart-label"><rect height="30" width="98.65625" y="-15" x="-49.328125" ry="0" rx="0" style="" class="basic label-container"/><g transform="translate(-41.828125, -7.5)" style="" class="label"><rect/><foreignObject height="15" width="83.65625"><div style="display: inline-block; white-space: nowrap;" xmlns="http://www.w3.org/1999/xhtml"><span class="nodeLabel">remove.bg API</span></div></foreignObject></g></g><g transform="translate(529.44140625, 280)" data-id="Auth" data-node="true" id="flowchart-Auth-4" class="node default default flowchart-label"><rect height="30" width="156.71875" y="-15" x="-78.359375" ry="0" rx="0" style="" class="basic label-container"/><g transform="translate(-70.859375, -7.5)" style="" class="label"><rect/><foreignObject height="15" width="141.71875"><div style="display: inline-block; white-space: nowrap;" xmlns="http://www.w3.org/1999/xhtml"><span class="nodeLabel">auth.ts - register / login</span></div></foreignObject></g></g><g transform="translate(758.04296875, 280)" data-id="Votes" data-node="true" id="flowchart-Votes-5" class="node default default flowchart-label"><rect height="30" width="200.484375" y="-15" x="-100.2421875" ry="0" rx="0" style="" class="basic label-container"/><g transform="translate(-92.7421875, -7.5)" style="" class="label"><rect/><foreignObject height="15" width="185.484375"><div style="display: inline-block; white-space: nowrap;" xmlns="http://www.w3.org/1999/xhtml"><span class="nodeLabel">votes.ts - getVotes / toggleVote</span></div></foreignObject></g></g><g transform="translate(1053.32421875, 280)" data-id="Hacks" data-node="true" id="flowchart-Hacks-6" class="node default default flowchart-label"><rect height="30" width="290.078125" y="-15" x="-145.0390625" ry="0" rx="0" style="" class="basic label-container"/><g transform="translate(-137.5390625, -7.5)" style="" class="label"><rect/><foreignObject height="15" width="275.078125"><div style="display: inline-block; white-space: nowrap;" xmlns="http://www.w3.org/1999/xhtml"><span class="nodeLabel">hacks.ts - getHacks / submitHack / deleteHack</span></div></foreignObject></g></g><g transform="translate(1350.15234375, 280)" data-id="Products" data-node="true" id="flowchart-Products-7" class="node default default flowchart-label"><rect height="30" width="203.578125" y="-15" x="-101.7890625" ry="0" rx="0" style="" class="basic label-container"/><g transform="translate(-94.2890625, -7.5)" style="" class="label"><rect/><foreignObject height="15" width="188.578125"><div style="display: inline-block; white-space: nowrap;" xmlns="http://www.w3.org/1999/xhtml"><span class="nodeLabel">products.ts - list / save / delete</span></div></foreignObject></g></g><g transform="translate(1453.46484375, 375)" data-id="Storage" data-node="true" id="flowchart-Storage-8" class="node default default flowchart-label"><rect height="30" width="130" y="-15" x="-65" ry="0" rx="0" style="" class="basic label-container"/><g transform="translate(-57.5, -7.5)" style="" class="label"><rect/><foreignObject height="15" width="115"><div style="display: inline-block; white-space: nowrap;" xmlns="http://www.w3.org/1999/xhtml"><span class="nodeLabel">Convex File Storage</span></div></foreignObject></g></g><g transform="translate(1053.32421875, 40)" data-id="UI" data-node="true" id="flowchart-UI-0" class="node default default flowchart-label"><rect height="30" width="156.828125" y="-15" x="-78.4140625" ry="0" rx="0" style="" class="basic label-container"/><g transform="translate(-70.9140625, -7.5)" style="" class="label"><rect/><foreignObject height="15" width="141.828125"><div style="display: inline-block; white-space: nowrap;" xmlns="http://www.w3.org/1999/xhtml"><span class="nodeLabel">index.html + ES Modules</span></div></foreignObject></g></g><g transform="translate(656.875, 135)" data-id="State" data-node="true" id="flowchart-State-1" class="node default default flowchart-label"><rect height="30" width="249.265625" y="-15" x="-124.6328125" ry="0" rx="0" style="" class="basic label-container"/><g transform="translate(-117.1328125, -7.5)" style="" class="label"><rect/><foreignObject height="15" width="234.265625"><div style="display: inline-block; white-space: nowrap;" xmlns="http://www.w3.org/1999/xhtml"><span class="nodeLabel">state.js - Convex client, auth, app state</span></div></foreignObject></g></g><g transform="translate(1053.32421875, 135)" data-id="Events" data-node="true" id="flowchart-Events-2" class="node default default flowchart-label"><rect height="30" width="235.015625" y="-15" x="-117.5078125" ry="0" rx="0" style="" class="basic label-container"/><g transform="translate(-110.0078125, -7.5)" style="" class="label"><rect/><foreignObject height="15" width="220.015625"><div style="display: inline-block; white-space: nowrap;" xmlns="http://www.w3.org/1999/xhtml"><span class="nodeLabel">events.js - upload, votes, hacks, auth</span></div></foreignObject></g></g><g transform="translate(1477.31640625, 135)" data-id="Render" data-node="true" id="flowchart-Render-3" class="node default default flowchart-label"><rect height="30" width="228.921875" y="-15" x="-114.4609375" ry="0" rx="0" style="" class="basic label-container"/><g transform="translate(-106.9609375, -7.5)" style="" class="label"><rect/><foreignObject height="15" width="213.921875"><div style="display: inline-block; white-space: nowrap;" xmlns="http://www.w3.org/1999/xhtml"><span class="nodeLabel">render.js - product grid, cards, chips</span></div></foreignObject></g></g></g></g></g></svg>